<?xml version="1.0" encoding="UTF-8"?>
<!DOCTYPE svg PUBLIC "-//W3C//DTD SVG 1.0//EN" "http://www.w3.org/TR/2001/REC-SVG-20010904/DTD/svg10.dtd">
<!-- Creator: CorelDRAW 2020 (64 Bit) -->
<svg xmlns="http://www.w3.org/2000/svg" xml:space="preserve" width="900px" height="355px" version="1.0" shape-rendering="geometricPrecision" text-rendering="geometricPrecision" image-rendering="optimizeQuality" fill-rule="evenodd" clip-rule="evenodd"
viewBox="0 0 20309 8007"
 xmlns:xlink="http://www.w3.org/1999/xlink"
 xmlns:xodm="http://www.corel.com/coreldraw/odm/2003">
 <g id="Camada_x0020_1">
  <metadata id="CorelCorpID_0Corel-Layer"/>
  <path fill="#3C5AA6" fill-rule="nonzero" d="M1560 541l745 -59 81 127 87 -233 630 -24 605 2650 -1070 -91 -99 -521 -87 172 -125 -218 -32 373 -1033 88 185 -2255 113 -9zm606 220l-471 37 -141 1714 494 -42 85 -1000 304 529 216 -430 209 1092 505 43 -475 -2077 -232 9 -213 568 -281 -443z"/>
  <path fill="#3C5AA6" fill-rule="nonzero" d="M1571 674l664 -53 181 286 151 -401 430 -16 541 2363 -788 -67 -154 -807 -152 301 -214 -373 -59 687 -763 65 163 -1985z"/>
  <path fill="#3C5AA6" fill-rule="nonzero" d="M3151 1231l652 -316 472 849 268 -781 856 321 -1074 2695 -781 -281 324 -914 -845 -1511 128 -62zm542 34l-299 145 766 1369 -276 778 289 104 878 -2203 -345 -129 -373 1088 -640 -1152z"/>
  <path fill="#3C5AA6" fill-rule="nonzero" d="M3209 1351l539 -261 556 1000 321 -934 600 225 -976 2449 -535 -192 300 -846 -805 -1441z"/>
  <path fill="#3C5AA6" fill-rule="nonzero" d="M220 3536l240 -82c93,-32 172,-59 226,-77 71,-23 147,-47 228,-72 64,-19 145,-42 241,-68 85,-24 166,-44 243,-62 89,-20 168,-36 237,-48l0 0c62,-11 124,-20 188,-26l1 0c63,-6 127,-9 192,-10 102,-1 186,-1 253,1 74,2 131,6 170,12l5 1c58,11 111,24 161,39 50,16 101,36 152,59l1 1c54,25 104,53 149,85 45,31 89,68 131,110l2 1c42,43 80,88 113,135l0 1c33,48 63,99 89,154l1 4c14,30 24,62 32,94 7,33 11,67 12,102 1,106 -24,219 -76,340 -46,108 -115,225 -207,350 -84,116 -169,225 -254,327 -86,103 -174,199 -262,289 -83,84 -155,156 -217,216l-71 68 390 1305 -864 640 -953 -2615 -33 36 -88 1c-89,1 -155,-45 -198,-138 -12,-25 -23,-51 -34,-77 -12,-31 -26,-67 -42,-107 -13,-36 -31,-83 -53,-141l-131 -345c-27,-71 -45,-118 -56,-145 -15,-37 -26,-62 -33,-76l-105 -207 220 -75zm370 301l-35 12c54,140 109,282 161,423 40,-31 84,-47 129,-48l144 -3 932 2557 200 -148 -382 -1277 96 -86c38,-33 89,-81 154,-145 60,-58 130,-128 210,-210 79,-79 159,-168 240,-264 79,-95 158,-196 238,-306 73,-100 127,-191 162,-272 30,-70 44,-128 44,-175 0,-6 -1,-12 -3,-18 -1,-5 -2,-10 -4,-15 -17,-35 -35,-67 -55,-96l-1 0c-21,-30 -43,-56 -66,-80 -23,-23 -50,-45 -79,-65 -29,-20 -58,-37 -86,-50 -32,-15 -67,-28 -105,-40 -37,-12 -74,-21 -109,-28 -23,-3 -62,-6 -117,-7 -63,-2 -142,-2 -237,-1 -53,1 -107,3 -160,8 -52,5 -103,12 -154,22l-1 1c-80,14 -153,29 -220,44 -76,17 -151,36 -225,56 -64,18 -142,40 -231,67 -71,22 -144,45 -217,69 -91,30 -162,54 -223,75zm1268 540l28 97 64 -76c15,-19 29,-36 42,-53 -37,5 -73,12 -106,23 -10,3 -19,6 -28,9zm-257 562l-215 -736 111 -84c80,-61 170,-107 268,-138 94,-29 196,-44 307,-46 39,0 77,1 113,5 34,3 70,9 106,16l0 -1c66,12 117,44 154,95l0 1c31,42 47,91 48,147 0,69 -24,147 -72,233 -38,67 -91,142 -158,224l-1 1c-55,67 -113,135 -174,205 -55,63 -104,117 -147,162l-242 252 -98 -336z"/>
  <path fill="#3C5AA6" fill-rule="nonzero" d="M285 3727c165,-56 320,-109 465,-157 145,-49 298,-95 458,-139 161,-44 315,-79 462,-105 114,-21 230,-32 349,-33 198,-3 328,1 390,11 93,17 181,45 264,83 83,39 158,91 224,156 65,65 119,143 162,233 16,37 25,75 26,117 2,153 -80,342 -244,568 -165,227 -331,424 -498,593 -166,170 -291,290 -373,364l385 1289 -531 394 -976 -2675c-3,0 -16,13 -39,39 -23,26 -53,61 -89,102 -38,43 -61,68 -70,78 -4,0 -18,-29 -41,-87 -24,-59 -55,-140 -94,-244 -39,-104 -83,-220 -131,-347 -49,-128 -82,-207 -99,-240zm1334 553l176 603c84,-88 187,-206 311,-356 124,-151 185,-260 185,-327 -1,-26 -11,-41 -34,-45 -62,-12 -122,-19 -182,-18 -181,2 -333,50 -456,143z"/>
  <path fill="#3C5AA6" fill-rule="nonzero" d="M4729 4530c62,32 120,71 172,116 22,20 44,40 65,62l331 -4 -252 103c36,52 68,106 94,163 28,61 51,124 68,190 17,61 30,126 39,193 8,64 13,131 14,200 1,58 -1,111 -4,161 -4,52 -10,105 -19,159 -8,51 -17,100 -29,146 -12,52 -26,99 -40,140 -15,43 -32,86 -52,128 -20,41 -41,78 -64,113l0 0c-46,72 -94,138 -143,198 -49,60 -102,118 -158,172 -55,53 -110,101 -166,143 -56,44 -114,82 -174,116 -57,33 -115,62 -172,86 -58,25 -117,46 -176,62 -60,17 -118,29 -174,38 -56,8 -114,12 -175,13 -72,1 -140,-3 -203,-13 -65,-10 -129,-26 -194,-47 -63,-20 -121,-45 -176,-73 -55,-28 -107,-61 -155,-99l-3 -2c-77,-62 -144,-134 -203,-215l1 -1c-58,-80 -107,-170 -148,-270 -40,-97 -71,-197 -92,-301 -20,-103 -31,-208 -33,-316 -2,-189 23,-360 76,-515 55,-160 139,-302 251,-425 86,-94 175,-178 269,-253l0 0c92,-74 188,-137 287,-189 100,-52 202,-92 305,-119 104,-27 210,-41 317,-43 65,-1 126,2 183,9 61,7 121,18 178,33l0 0c24,7 48,14 72,21l35 -167 61 201 9 4c60,24 120,51 178,82zm42 610c-12,-28 -27,-54 -42,-79 4,18 7,37 10,55 5,37 8,79 9,125 1,64 -5,127 -16,189 -12,64 -29,126 -52,187l0 1c-25,66 -56,126 -93,181 -38,57 -82,107 -132,151 -56,49 -116,87 -181,112 -64,26 -134,39 -208,40 -71,1 -144,-10 -216,-34 -69,-22 -138,-54 -206,-97l0 0c-87,-54 -154,-121 -201,-198 -48,-82 -73,-172 -74,-272 -1,-53 5,-105 17,-154 13,-51 32,-100 57,-147 22,-44 49,-86 80,-127l1 0c31,-41 66,-78 103,-113 39,-35 81,-68 128,-97 44,-28 93,-53 146,-75l0 -1c34,-14 67,-26 102,-36 -69,2 -137,12 -206,30 -73,20 -147,48 -219,86 -73,39 -148,88 -222,148l-1 -1c-72,58 -146,128 -220,209l-1 1c-75,82 -130,176 -167,282 -38,113 -56,239 -55,380 1,83 10,164 25,242 16,77 39,152 69,226 30,72 64,134 103,189l1 0c39,54 81,99 128,137 26,20 55,38 88,56 35,17 74,33 116,47l2 1c39,13 82,23 127,30 47,7 93,11 138,10 37,0 78,-4 121,-10 43,-7 85,-15 125,-27 41,-11 83,-26 126,-44 43,-19 87,-41 131,-66 42,-24 85,-52 128,-85 44,-34 87,-71 129,-112l1 -1c41,-39 82,-85 124,-136 41,-52 81,-107 119,-165l2 -2c13,-18 25,-39 36,-63 11,-23 23,-52 34,-85l0 -1c13,-36 23,-71 31,-103 9,-38 16,-76 22,-115l0 -1c6,-39 11,-79 14,-121 3,-46 5,-89 4,-130 -1,-50 -4,-100 -11,-150 -6,-47 -16,-95 -29,-143 -12,-44 -27,-86 -45,-124zm-546 53c20,-22 37,-44 51,-67 -11,6 -21,13 -30,20 -15,10 -26,22 -33,33 -11,16 -18,30 -22,43l-1 4c11,-9 22,-20 35,-33zm-46 461c-10,1 -20,2 -31,2 -38,0 -74,-4 -108,-14 -37,-10 -71,-25 -102,-45l-10 -7 -5 -4c-50,-39 -88,-91 -112,-156 -4,-12 -8,-25 -12,-37 -9,18 -16,36 -20,52 -4,18 -7,36 -6,51 0,27 6,50 17,69 14,22 36,43 67,62l1 0c41,26 80,45 115,56 32,11 61,16 88,15 23,0 45,-4 66,-13 18,-7 36,-17 52,-31z"/>
  <path fill="#3C5AA6" fill-rule="nonzero" d="M4635 4709c98,51 178,120 240,207 62,88 107,186 137,296 29,109 44,224 46,343 1,99 -5,193 -20,285 -14,92 -35,176 -61,253 -27,77 -58,143 -94,196 -85,130 -175,242 -273,336 -97,94 -196,170 -298,228 -102,58 -203,101 -303,129 -100,28 -199,43 -298,44 -116,1 -227,-15 -332,-50 -105,-35 -195,-81 -269,-139 -123,-100 -220,-235 -291,-406 -70,-170 -106,-351 -109,-542 -4,-330 87,-597 275,-802 160,-175 327,-308 500,-399 172,-90 349,-137 531,-139 107,-1 209,11 308,36 98,25 202,67 311,124zm-117 346c-22,105 -71,197 -147,277 -76,80 -151,121 -225,122 -36,0 -69,-9 -98,-28 -42,-32 -63,-89 -64,-171 -1,-63 19,-125 60,-188 41,-62 106,-111 196,-148 -90,1 -178,20 -261,55 -84,35 -155,80 -215,135 -59,54 -107,116 -141,184 -36,69 -53,137 -52,205 1,127 61,228 180,301 110,69 215,102 313,101 97,-1 182,-35 257,-101 74,-65 131,-149 169,-252 38,-103 57,-204 56,-303 -1,-69 -10,-132 -28,-189z"/>
  <path fill="#3C5AA6" fill-rule="nonzero" d="M9242 5609l575 676 -35 107c-27,83 -73,162 -137,236 -59,68 -133,131 -222,190l0 0c-85,56 -175,105 -271,148 -96,42 -200,80 -310,111 -110,31 -221,55 -333,72 -107,16 -218,25 -332,26 -101,2 -196,-4 -285,-16 -94,-13 -182,-32 -264,-59 -88,-29 -166,-65 -235,-110 -73,-47 -137,-103 -189,-169 -83,-102 -146,-218 -188,-348 -40,-125 -62,-263 -63,-413 -2,-117 7,-231 26,-343 19,-111 49,-223 89,-335l0 -1c40,-111 82,-205 125,-283 48,-88 100,-159 156,-213 57,-55 114,-105 173,-149l1 0c61,-45 124,-86 191,-123 66,-37 132,-68 200,-96 68,-27 138,-50 208,-69 71,-18 142,-33 216,-43 71,-9 145,-15 221,-16 97,-1 193,6 287,20 96,15 188,38 276,68 90,30 175,68 256,114 82,47 158,100 226,160l148 128 -553 678 43 52zm104 746l-239 -281c-23,27 -46,53 -70,79l0 0c-44,47 -92,89 -142,127 -52,38 -106,70 -161,97l-1 1c-57,27 -117,48 -179,63 -60,14 -123,21 -189,22l-433 6 1247 -1526c-58,-33 -120,-60 -187,-83 -69,-24 -139,-41 -208,-52 -72,-11 -145,-16 -221,-15 -56,1 -114,5 -171,13 -56,8 -111,19 -167,33 -54,15 -108,33 -161,54 -53,21 -104,46 -154,73 -50,28 -99,60 -146,95l1 0c-48,36 -93,74 -134,114 -26,25 -54,65 -83,117 -34,62 -68,138 -100,227 -31,87 -55,175 -70,266l0 1c-15,91 -23,180 -21,269 1,109 16,207 44,295 27,82 65,154 117,216l1 2c25,31 56,58 92,82 41,26 88,48 142,65l1 0c60,20 124,34 191,43 72,10 148,14 228,13 89,-1 182,-9 278,-23 92,-14 186,-34 280,-61 93,-26 179,-57 258,-92 79,-35 149,-73 211,-114l0 0c59,-39 105,-78 139,-117l7 -9zm-888 -1321c49,12 98,30 146,53l224 111 -1011 1284 -116 -365c-12,-37 -22,-72 -31,-105 -7,-23 -15,-54 -23,-89l-1 -1c-7,-29 -12,-59 -16,-89 -3,-26 -5,-57 -5,-92 -1,-89 12,-174 39,-256 27,-79 67,-154 119,-224 26,-38 61,-73 103,-104l0 -1c34,-26 77,-50 126,-73l0 0c45,-20 93,-36 144,-48 49,-10 99,-16 150,-17 53,0 104,5 152,16zm-1116 -1406l1248 -711 751 1122 -1753 356 -434 -660 188 -107zm1121 -174l-734 419 47 72 894 -182 -207 -309z"/>
  <path fill="#3C5AA6" fill-rule="nonzero" d="M9088 5739l502 590c-38,116 -131,223 -278,320 -147,97 -322,175 -526,233 -203,58 -407,89 -611,91 -181,3 -342,-19 -484,-66 -142,-45 -252,-116 -330,-212 -135,-165 -203,-378 -206,-638 -3,-205 31,-407 103,-607 72,-200 150,-340 232,-420 98,-96 206,-176 322,-240 116,-65 236,-113 362,-146 125,-33 254,-51 387,-53 174,-2 339,24 496,77 157,53 296,132 414,236l-1109 1357c101,-1 195,-23 284,-66 89,-43 171,-103 245,-181 74,-78 140,-170 197,-275zm-574 -470c-67,-34 -136,-50 -205,-49 -75,1 -146,17 -214,48 -69,31 -117,67 -146,109 -83,110 -124,231 -122,362 0,48 6,93 16,137 10,44 27,104 51,180l620 -787zm-1073 -1465l1085 -619 479 716 -1323 269 -241 -366z"/>
  <path fill="#3C5AA6" fill-rule="nonzero" d="M4611 3317l1297 -563 179 2333 634 -358 1431 196 -1315 1035 964 708 98 1339 -1631 -1141 51 795 -1380 43 -227 -3515 -371 89 172 -918 98 -43zm936 34l-676 294 -18 94 232 -55 233 3604 570 -18 -77 -1217 1622 1135 -22 -305 -1242 -913 983 -774 -352 -48 -1068 603 -185 -2400z"/>
  <path fill="#3C5AA6" fill-rule="nonzero" d="M4692 3502l1035 -450 183 2367 851 -481 891 123 -1149 904 1103 810 60 822 -1626 -1138 64 1006 -976 31 -230 -3559 -301 71 95 -506z"/>
  <path fill="#96061E" fill-rule="nonzero" d="M9749 6637l-154 -2312 -251 49 44 -1127 2313 -375 73 1044 -1138 204 12 189 850 -146 76 920 -867 173 113 1498 -149 24c-35,5 -62,9 -85,12l-121 14c-48,6 -96,10 -142,13 -42,3 -86,5 -133,5 -72,1 -132,-2 -183,-8 -60,-7 -111,-19 -154,-36l-97 -38 -7 -103zm160 -2518l159 2373c35,3 75,4 118,4 32,-1 71,-2 116,-5 39,-3 81,-7 125,-12l44 -5 -113 -1482 865 -173 -22 -273 -856 147 -54 -843 1136 -203 -28 -395 -1695 275 -18 448 211 -41 12 185z"/>
  <path fill="#96061E" fill-rule="nonzero" d="M9913 6626l-167 -2496 -231 45 31 -788 2004 -325 50 719 -1136 204 33 516 852 -146 50 596 -867 173 114 1492c-40,7 -106,15 -200,26 -94,10 -180,16 -258,17 -124,2 -216,-10 -275,-33z"/>
  <path fill="#96061E" fill-rule="nonzero" d="M12507 6606l-914 62 -62 -1746 -294 69 137 -740 1132 -492 162 2835 -161 12zm-600 -287l417 -29 -118 -2045 -543 235 -14 77 194 -46 64 1808zm0 -3478c51,-1 98,3 140,10l0 1c48,8 92,21 131,39 35,15 69,34 102,55 33,22 63,46 88,71 24,23 44,45 60,65 20,26 36,51 48,76l1 2c13,27 22,54 28,82 5,25 8,53 8,82 1,40 -3,79 -10,116 -7,36 -18,73 -34,112l0 1c-14,36 -30,69 -47,98 -17,31 -37,60 -59,87l-2 2c-25,30 -50,55 -75,74 -33,25 -69,42 -106,51l-11 3c-31,5 -59,9 -82,12 -26,3 -50,4 -73,5 -47,0 -92,-3 -133,-11 -46,-9 -88,-21 -127,-39 -41,-19 -78,-42 -111,-69 -33,-28 -62,-60 -87,-97 -24,-35 -43,-74 -58,-115 -15,-39 -25,-81 -31,-125l-1 -9 0 -11c-1,-62 6,-121 20,-178 14,-58 36,-114 65,-167l0 0c36,-65 83,-117 142,-155 58,-37 124,-60 199,-67l5 -1 10 0zm83 332l0 1c-23,-4 -46,-7 -70,-7 -20,3 -37,8 -49,16 -13,8 -24,21 -33,37l1 1c-17,29 -28,59 -36,88 -7,28 -10,56 -11,85 3,17 7,34 13,49 5,15 12,29 21,42l1 1c7,11 16,20 26,29 10,8 22,16 36,22 16,7 33,12 50,16 22,4 46,6 71,5 7,0 20,-1 40,-3l0 0c13,-2 28,-4 44,-6 4,-4 9,-9 14,-15 10,-13 20,-28 30,-45 11,-19 20,-38 28,-58 7,-17 12,-35 16,-54 3,-18 5,-34 5,-49 0,-5 -1,-12 -2,-18l-3 -10c-1,-3 -5,-7 -10,-14 -9,-11 -20,-23 -33,-36l-2 -2c-11,-11 -23,-21 -36,-29 -14,-9 -32,-19 -55,-29 -17,-8 -36,-13 -56,-17z"/>
  <path fill="#96061E" fill-rule="nonzero" d="M12496 6442l-746 51 -63 -1777 -244 58 75 -408 838 -364 140 2440zm-587 -3438c78,-1 146,11 203,36 58,26 104,56 141,93 37,36 63,68 76,96 14,30 21,62 21,97 1,55 -10,110 -32,166 -23,56 -51,104 -83,144 -33,40 -64,64 -93,71 -58,10 -101,14 -130,14 -73,1 -136,-10 -191,-35 -54,-25 -98,-61 -130,-109 -33,-48 -53,-105 -62,-170 -1,-94 21,-182 66,-265 44,-82 116,-128 214,-138z"/>
  <path fill="#96061E" fill-rule="nonzero" d="M19897 4558l-747 500 -75 -186c-13,-30 -26,-56 -39,-77 -13,-21 -29,-41 -47,-60 -8,-9 -16,-16 -22,-21 -12,14 -25,37 -38,69 -17,41 -30,102 -39,183l0 1c-10,92 -15,203 -13,332 1,92 5,196 12,312 6,115 15,234 26,357l14 157 -1127 145 -24 -158c-25,-168 -45,-332 -60,-493 -14,-156 -22,-303 -24,-441 0,-24 0,-53 1,-85 1,-32 2,-66 3,-99l-48 -1109 883 -121 81 91 10 -3 0 1c48,-16 83,-27 108,-35 27,-8 61,-17 102,-28 41,-10 74,-18 97,-23 33,-6 65,-11 97,-15 32,-3 65,-5 100,-6 137,-2 260,29 368,91 59,31 112,63 160,98 50,35 93,71 130,109 43,42 80,94 110,153 29,56 52,118 69,187l27 111 -95 63zm-615 19l329 -221 -5 -10c-14,-28 -31,-52 -50,-71l-1 -1c-25,-24 -54,-49 -88,-73 -36,-26 -78,-51 -125,-77l-5 -3c-57,-33 -126,-50 -205,-49 -20,1 -43,2 -68,5 -22,2 -44,6 -67,11l-2 0c-34,7 -60,13 -81,18 -20,6 -50,14 -88,26 -42,12 -75,22 -100,31l0 0c-47,16 -82,28 -105,36l-104 37 -112 -125 -416 57 36 826 0 7c-2,41 -3,74 -4,100 -1,29 -1,54 0,73 1,129 9,268 22,416 9,98 21,203 36,315l498 -64c-6,-75 -11,-146 -15,-212 -6,-113 -10,-222 -11,-326 -2,-146 2,-270 14,-372 12,-112 33,-203 62,-273l0 -1c33,-78 72,-140 119,-185 61,-58 132,-88 211,-89 53,-1 104,11 152,36 42,22 81,52 118,92 19,20 38,42 55,66z"/>
  <path fill="#96061E" fill-rule="nonzero" d="M19806 4423l-580 388c-30,-74 -69,-136 -118,-188 -48,-52 -98,-78 -149,-77 -73,1 -133,59 -181,174 -46,112 -68,305 -64,581 2,193 15,421 39,682l-813 105c-52,-341 -79,-645 -83,-912 0,-44 1,-105 5,-182l-43 -967 650 -89 97 107c76,-27 148,-51 213,-70 65,-20 127,-36 184,-47 57,-12 113,-18 167,-19 109,-1 206,23 289,71 106,57 190,117 252,179 62,62 107,150 135,264z"/>
  <path fill="#96061E" fill-rule="nonzero" d="M17816 5043l464 546 -28 87c-22,67 -59,131 -111,190 -47,55 -107,106 -179,154l0 0c-69,45 -142,85 -219,119l0 0c-81,35 -164,65 -251,90l0 0c-90,25 -179,45 -268,58 -87,13 -177,20 -268,21 -82,1 -159,-3 -231,-13 -76,-10 -147,-26 -213,-48 -71,-23 -134,-52 -190,-88 -59,-38 -110,-84 -153,-137 -67,-82 -117,-176 -151,-281 -33,-101 -50,-212 -52,-334 -1,-94 6,-186 22,-276 15,-90 39,-181 72,-271l0 -1c32,-89 66,-166 100,-229 39,-71 81,-128 127,-172 45,-44 92,-85 139,-120 48,-36 100,-69 155,-99 53,-30 107,-56 162,-78 55,-22 111,-41 168,-56 57,-15 115,-26 174,-34 58,-8 117,-12 179,-13 79,-1 156,4 232,16 77,12 152,30 223,54 72,25 141,56 207,93 66,38 127,81 183,129l119 104 -447 547 35 42zm84 603l-194 -228c-18,22 -36,44 -56,64l0 1c-36,37 -74,72 -115,102 -41,31 -85,57 -130,79l-1 0c-46,22 -94,39 -144,51 -48,11 -99,17 -153,18l-349 4 1006 -1232c-46,-26 -96,-49 -150,-67 -56,-19 -112,-33 -168,-42 -58,-9 -118,-13 -179,-12 -45,1 -92,4 -138,11 -45,6 -90,15 -135,26 -44,12 -87,26 -130,43 -42,18 -84,38 -124,60 -39,22 -78,47 -118,76 -38,29 -75,60 -108,92 -21,21 -43,53 -67,95 -27,50 -54,111 -80,183 -26,70 -45,142 -57,215l0 1c-13,73 -18,146 -17,217 1,88 13,168 36,238 21,67 52,125 94,175l1 2c20,25 45,47 74,66 33,21 72,38 115,52l0 0c49,16 101,28 155,35 58,8 120,12 184,11 72,-1 147,-7 224,-19 76,-11 152,-27 227,-49 77,-22 147,-47 208,-74l0 0c64,-29 121,-59 171,-92l0 -1c47,-31 85,-63 112,-94l6 -7zm-717 -1067c39,9 78,23 117,43l181 89 -817 1037 -93 -295c-9,-29 -18,-58 -26,-84 -8,-29 -14,-53 -19,-72 -5,-23 -9,-48 -12,-73 -3,-21 -4,-46 -5,-74 -1,-72 10,-141 32,-207 22,-64 54,-124 96,-181 21,-31 49,-59 83,-84l0 -1c29,-21 63,-41 102,-59 36,-16 75,-29 116,-38 40,-9 81,-14 122,-14 42,-1 83,4 123,13z"/>
  <path fill="#96061E" fill-rule="nonzero" d="M17691 5148l406 477c-31,93 -106,180 -225,259 -119,78 -260,141 -424,188 -165,46 -330,71 -494,73 -146,2 -276,-16 -391,-53 -115,-37 -204,-94 -266,-172 -110,-133 -165,-305 -168,-515 -2,-165 26,-329 84,-490 59,-162 121,-275 187,-340 80,-77 167,-142 260,-194 94,-52 191,-91 293,-118 101,-26 205,-41 313,-42 140,-2 273,19 400,62 127,43 239,107 335,190l-896 1097c81,-1 157,-19 229,-53 72,-35 138,-84 198,-147 60,-63 113,-137 159,-222zm-463 -380c-55,-27 -110,-40 -166,-39 -60,1 -118,13 -173,38 -55,25 -95,55 -117,88 -68,90 -101,187 -100,293 1,39 5,76 14,111 8,35 22,84 41,145l501 -636z"/>
  <path fill="#96061E" fill-rule="nonzero" d="M13179 4167l71 -23c52,-16 103,-31 153,-44 52,-13 101,-23 147,-29 48,-7 96,-11 145,-11 68,-1 132,6 192,20 61,14 119,37 174,67 61,34 122,78 184,133 59,51 120,114 183,188 65,75 117,148 158,219 44,76 76,150 94,223l0 0c31,121 56,236 72,345 17,110 27,212 28,307 0,52 0,103 -3,153 -3,52 -7,105 -12,159l0 0c-5,48 -13,109 -22,183 -10,77 -20,149 -30,217l-19 131 -1001 72 3 -178c1,-29 1,-64 1,-104l-1 -130c-3,-206 -19,-397 -50,-575 -30,-167 -72,-320 -127,-457 -8,18 -17,38 -27,60l1 1c-7,17 -13,32 -17,46 -5,19 -10,37 -14,56l1 0c-5,25 -9,48 -12,69 -2,21 -5,47 -7,79 -2,33 -4,64 -4,93 -1,35 -1,73 0,113 1,79 4,174 11,285 6,111 15,227 26,349l14 157 -1127 145 -24 -158 -20 -147c-9,-62 -16,-113 -20,-147l0 0c-7,-54 -12,-101 -17,-141 -3,-33 -8,-78 -13,-132l0 -1c-3,-37 -6,-81 -8,-133 -2,-43 -4,-91 -5,-143 0,-23 0,-50 1,-81 1,-33 2,-65 4,-99l-49 -1107 883 -123 83 93zm167 289c-51,16 -105,34 -163,54l-103 36 -111 -124 -417 58 37 824 -1 7c-2,41 -3,74 -4,99 0,29 0,52 0,70 0,42 2,86 4,131 2,36 4,78 8,123l0 0c2,28 6,68 12,124l0 0c6,49 11,94 16,135l1 1c7,54 12,95 16,127l498 -64c-6,-73 -11,-141 -14,-203 -7,-108 -11,-208 -12,-301 0,-43 0,-84 1,-122 0,-44 2,-80 4,-109 2,-30 5,-63 10,-98 4,-35 9,-64 13,-89l1 -1c6,-31 13,-59 21,-85 8,-30 17,-56 26,-78l2 -2c39,-93 79,-166 119,-217 63,-81 135,-122 217,-123 74,-1 140,32 196,101 32,39 63,95 94,167l1 2c66,161 116,340 150,535 33,190 51,399 54,627l1 64 385 -27 11 -83c8,-60 15,-119 21,-175 5,-49 9,-96 11,-141 2,-47 3,-91 3,-133 -1,-79 -9,-167 -24,-261 -15,-97 -37,-202 -67,-315l0 -1c-11,-43 -31,-89 -59,-138 -31,-54 -73,-111 -124,-170 -51,-61 -102,-112 -151,-155 -45,-40 -87,-71 -125,-92l-2 -1c-27,-16 -57,-27 -90,-35 -36,-8 -74,-12 -114,-12 -31,1 -66,3 -103,9 -37,5 -75,12 -111,22 -38,9 -85,23 -138,39z"/>
  <path fill="#96061E" fill-rule="nonzero" d="M13129 4356c121,-42 227,-75 315,-98 88,-22 172,-34 253,-35 108,-1 203,21 285,68 99,54 207,149 322,283 116,135 188,260 217,375 61,235 93,440 96,615 1,93 -4,190 -15,293 -11,102 -28,234 -51,394l-692 50c1,-55 1,-134 0,-238 -5,-433 -69,-801 -193,-1103 -47,-113 -93,-169 -137,-168 -58,0 -120,80 -188,240 -16,39 -29,84 -39,134 -10,49 -17,105 -21,167 -4,62 -6,135 -5,219 3,170 15,386 39,647l-813 105c-14,-97 -28,-194 -40,-290 -12,-96 -22,-185 -29,-267 -7,-82 -11,-170 -12,-265 -1,-41 1,-100 4,-178l-42 -965 649 -91 97 108z"/>
  <path fill="#96061E" fill-rule="nonzero" d="M15407 4483c11,-3 21,-7 32,-10 -54,2 -109,10 -163,24l-1 0c-58,16 -117,39 -177,70 -60,32 -121,72 -180,119 -62,49 -122,105 -181,169 -61,66 -105,142 -135,228 -31,91 -46,193 -44,307 1,67 7,132 20,195 13,62 31,123 56,183 23,58 51,108 83,152 30,43 65,80 104,111 20,16 45,31 72,46 29,15 60,28 93,39l0 0c31,11 65,18 102,24 38,5 76,8 113,7 49,0 100,-6 152,-17 52,-11 103,-28 153,-49l224 -95 2 172 416 -27 -28 -871 1 -10c1,-14 2,-30 3,-47 1,-22 1,-47 0,-75 0,-28 -1,-58 -4,-92 -3,-32 -6,-58 -9,-80l-2 -10 -15 -504 -453 310c-19,13 -33,28 -42,44 -9,19 -13,41 -13,69l1 12 128 -2 9 656 -138 24c-16,3 -32,5 -47,7 -15,1 -30,2 -46,2 -60,1 -120,-8 -180,-27 -56,-18 -112,-45 -166,-80l0 0c-69,-44 -123,-98 -160,-160 -40,-66 -60,-139 -61,-218 0,-38 4,-75 12,-112 8,-36 20,-72 37,-107 16,-36 34,-69 55,-99l1 1c21,-31 45,-60 72,-88l0 0c27,-27 57,-53 89,-77 30,-23 64,-44 100,-64l2 -1c36,-19 74,-36 113,-49zm-132 506l-3 6c-7,15 -12,29 -15,44 -3,12 -5,25 -4,36 0,20 5,38 14,54 11,18 30,36 56,53l2 1c23,16 46,28 68,37l0 -60c-6,-4 -13,-8 -19,-12 -42,-33 -73,-78 -92,-135 -3,-7 -5,-16 -7,-24zm436 -559l381 -51 -45 -1438 -368 171 32 1318zm-266 -1570l913 -425 77 2480c5,33 9,65 11,96 3,30 4,68 5,113 0,34 0,64 -1,88l0 1c0,25 -2,46 -3,63l37 1160 -1074 71 -1 -55c-66,14 -134,21 -204,22 -58,1 -113,-3 -164,-10 -52,-8 -105,-21 -157,-38l0 1c-51,-17 -98,-37 -142,-60 -43,-22 -85,-49 -125,-80l-2 -2c-61,-50 -115,-107 -163,-174 -47,-65 -87,-138 -120,-219 -32,-78 -57,-159 -74,-243 -17,-83 -26,-168 -27,-255 -2,-153 19,-291 61,-416 45,-130 113,-245 204,-344l1 -1c71,-76 143,-144 217,-203 76,-60 153,-110 232,-152 80,-42 163,-74 247,-96 61,-17 122,-27 185,-32l-30 -1245 97 -45z"/>
  <path fill="#96061E" fill-rule="nonzero" d="M15549 4617c-60,8 -120,28 -179,60 -59,32 -108,69 -150,111 -42,43 -74,89 -97,139 -23,51 -34,101 -34,150 2,100 50,181 146,243 84,55 170,82 256,81 17,0 40,-3 68,-8l-5 -352c-29,0 -56,-7 -79,-22 -34,-27 -51,-77 -52,-152 -1,-108 41,-192 126,-250zm-35 -1609l688 -320 70 2242c9,58 15,123 16,196 0,64 -1,111 -5,142l33 1015 -745 50 -1 -102c-121,52 -243,78 -367,80 -95,1 -184,-12 -268,-40 -84,-28 -156,-65 -217,-113 -100,-81 -178,-189 -235,-328 -57,-138 -86,-284 -88,-438 -4,-266 70,-482 221,-648 131,-140 266,-248 406,-321 140,-74 284,-111 430,-113 42,-1 72,0 93,2l-31 -1304z"/>
  <path fill="#2A75BB" fill-rule="nonzero" d="M1945 189l744 -60 81 128 87 -233 630 -24 606 2650 -1071 -92 -99 -520 -87 172 -125 -218 -32 373 -1033 88 185 -2255 114 -9zm605 220l-471 37 -141 1714 494 -42 85 -1000 304 529 217 -430 208 1092 505 43 -475 -2077 -232 9 -213 568 -281 -443z"/>
  <path fill="#FFCB05" fill-rule="nonzero" d="M1955 322l665 -53 180 286 151 -401 431 -17 540 2364 -788 -67 -154 -807 -151 301 -215 -373 -58 686 -764 66 163 -1985z"/>
  <path fill="#2A75BB" fill-rule="nonzero" d="M3535 879l652 -316 472 848 268 -780 856 321 -1074 2694 -781 -280 324 -914 -844 -1511 127 -62zm542 34l-299 145 766 1369 -276 778 289 104 878 -2203 -344 -129 -374 1087 -640 -1151z"/>
  <path fill="#FFCB05" fill-rule="nonzero" d="M3593 999l539 -261 556 1000 321 -934 600 225 -976 2449 -535 -192 300 -847 -805 -1440z"/>
  <path fill="#2A75BB" fill-rule="nonzero" d="M604 3184l240 -83c43,-14 113,-38 226,-75 88,-29 164,-53 228,-73 64,-19 145,-42 242,-69 85,-23 165,-43 242,-61 78,-17 157,-33 236,-48 62,-11 125,-20 190,-26 62,-6 127,-9 192,-10 103,-1 187,-1 253,1 74,2 131,6 171,12l4 1c58,11 112,24 161,39 50,16 101,36 152,59l2 1c51,24 101,52 148,85l0 -1c46,32 90,69 132,111l1 1c41,41 79,87 113,136 34,48 63,99 89,154l1 3c14,31 25,62 32,95l0 1c7,32 11,66 12,101 1,106 -24,219 -76,339 -46,109 -115,226 -206,351 -84,116 -169,225 -255,327 -86,103 -173,199 -262,289 -82,84 -155,156 -217,216l-71 68 390 1305 -863 640 -954 -2614 -32 35 -89 1c-89,1 -155,-45 -198,-138 -12,-25 -23,-51 -33,-77l0 0c-20,-52 -35,-87 -42,-107 -14,-36 -32,-83 -53,-142l-131 -344c-28,-72 -46,-118 -57,-145 -15,-37 -26,-62 -33,-76l-105 -207 220 -75zm370 301l-35 12c55,140 109,282 161,423 40,-32 84,-48 129,-48l144 -3 932 2557 200 -149 -381 -1276 96 -86c37,-33 88,-81 153,-145 61,-59 131,-129 210,-210 79,-80 159,-168 240,-264 79,-95 159,-197 238,-306 73,-100 127,-191 162,-273 30,-69 44,-127 44,-174 0,-6 -1,-12 -2,-18 -1,-5 -3,-10 -5,-15 -17,-35 -35,-67 -56,-97 -19,-28 -41,-54 -65,-79 -24,-23 -50,-45 -79,-65l0 -1c-27,-19 -56,-35 -87,-50 -32,-14 -67,-28 -104,-39 -38,-12 -74,-21 -109,-28 -23,-3 -62,-6 -118,-7 -63,-2 -142,-2 -237,-1 -53,0 -106,3 -159,8l-1 0c-51,5 -102,12 -154,22l-1 0c-69,12 -142,27 -219,45 -76,17 -151,36 -225,56 -65,18 -143,40 -232,67 -88,27 -160,49 -217,68l-223 76zm1268 540l29 97 63 -76c15,-19 29,-37 42,-53 -37,4 -72,12 -106,23 -10,3 -19,6 -28,9zm-257 562l-215 -737 111 -84c80,-60 170,-106 268,-137 94,-29 197,-45 308,-46 38,0 76,1 112,5 35,3 70,9 106,16l0 -1c66,12 117,43 154,95l0 0c32,43 47,92 48,148 1,69 -23,147 -72,233 -38,67 -91,142 -158,224l0 1c-56,67 -114,135 -175,205 -55,63 -104,117 -147,162l-241 251 -99 -335z"/>
  <path fill="#FFCB05" fill-rule="nonzero" d="M670 3375c164,-56 319,-110 464,-158 145,-48 298,-94 459,-138 160,-44 314,-79 462,-105 113,-21 229,-32 348,-33 198,-3 328,1 390,11 93,17 181,45 264,83 83,38 158,91 224,156 65,65 119,143 162,233 16,37 25,75 26,116 2,154 -80,343 -244,569 -165,227 -331,424 -497,593 -167,169 -291,290 -374,364l386 1289 -532 394 -976 -2675c-3,0 -16,12 -39,39 -22,26 -53,60 -89,102 -37,43 -61,68 -70,78 -4,0 -18,-29 -41,-88 -24,-58 -55,-140 -93,-243 -39,-104 -84,-220 -132,-347 -49,-128 -82,-207 -98,-240zm1333 553l176 602c84,-87 188,-206 312,-356 123,-150 185,-260 184,-326 -1,-26 -11,-41 -34,-45 -61,-13 -122,-19 -182,-18 -180,2 -332,50 -456,143z"/>
  <path fill="#2A75BB" fill-rule="nonzero" d="M5113 4178c63,32 120,71 172,116 23,19 44,40 65,62l80 99c36,52 67,106 93,163 28,61 51,124 69,189 16,62 29,126 38,194 9,64 13,130 14,199 1,59 0,112 -4,161 -3,53 -10,106 -18,159 -9,52 -18,101 -29,147 -13,52 -26,99 -40,139 -16,44 -33,87 -53,129 -20,41 -41,78 -64,113l0 0c-44,68 -92,134 -144,198 -50,62 -103,120 -157,172 -55,53 -110,101 -165,143 -57,43 -114,82 -174,116l0 0c-56,32 -113,61 -173,86 -58,25 -116,45 -176,62 -60,17 -118,29 -174,37 -56,9 -114,13 -175,14 -72,1 -140,-4 -203,-13 -64,-10 -129,-26 -194,-47 -62,-20 -121,-45 -176,-73 -55,-28 -107,-62 -155,-99l-3 -2c-77,-62 -144,-134 -202,-215 -57,-79 -106,-169 -148,-271 -40,-97 -70,-197 -91,-301 -21,-103 -32,-208 -33,-316 -3,-189 22,-360 75,-515 55,-160 139,-302 252,-425 87,-96 176,-180 268,-253 92,-74 188,-137 287,-189 100,-52 202,-92 305,-119 104,-27 210,-42 317,-43 65,-1 126,2 183,9 61,7 121,18 178,32l1 1c23,6 47,13 71,21l97 34 8 3c61,25 120,52 178,83zm43 610c-13,-28 -27,-54 -43,-79 4,18 7,36 10,55 5,37 8,79 9,125 1,63 -5,127 -16,189 -12,64 -29,126 -51,186l-1 2c-25,65 -56,126 -93,181 -38,56 -82,107 -132,151 -55,49 -116,87 -180,112 -65,26 -135,39 -209,40 -71,1 -143,-10 -216,-34 -69,-22 -138,-55 -206,-97l0 0c-87,-54 -154,-121 -200,-198 -49,-82 -74,-172 -75,-272 -1,-53 5,-105 18,-155 12,-50 31,-99 56,-146 22,-43 49,-85 81,-127 31,-40 65,-78 104,-113 38,-35 81,-68 127,-97 44,-28 93,-53 146,-75l1 -1c33,-14 67,-26 101,-36 -68,2 -137,12 -205,30 -74,19 -147,48 -220,86 -73,39 -147,88 -222,147 -75,60 -148,130 -221,209l-1 1c-74,81 -130,175 -166,282 -39,113 -57,239 -55,380 1,83 9,163 25,242 15,77 38,152 69,226 28,70 63,132 103,189 39,54 81,99 128,137 26,20 55,38 89,55 34,18 73,34 115,48l2 1c39,13 82,23 127,30 48,7 94,10 138,10 37,-1 78,-4 122,-10 42,-7 84,-15 124,-27 41,-11 83,-26 126,-44 41,-18 85,-40 130,-66l1 0c43,-24 85,-53 128,-85 44,-34 87,-71 130,-112l0 -1c43,-42 85,-87 125,-136 39,-48 78,-103 118,-165l3 -2c12,-18 24,-39 36,-63 11,-24 22,-52 33,-85l0 -1c13,-36 23,-71 31,-103 9,-38 16,-76 23,-115l0 -1c6,-39 10,-79 13,-121 3,-46 5,-89 4,-130 0,-50 -4,-100 -11,-150 -6,-47 -16,-95 -29,-143 -12,-44 -26,-86 -44,-124z"/>
  <path fill="#FFCB05" fill-rule="nonzero" d="M5019 4357c98,51 178,120 240,207 62,87 108,186 137,296 29,109 45,224 46,343 2,99 -5,193 -20,285 -14,92 -35,176 -61,253 -26,77 -58,143 -94,196 -85,129 -175,242 -272,336 -98,94 -197,170 -299,228 -102,58 -203,101 -303,129 -100,28 -199,43 -298,44 -116,1 -227,-15 -331,-50 -106,-35 -195,-81 -269,-139 -124,-100 -220,-235 -291,-406 -70,-171 -107,-351 -109,-542 -5,-330 87,-597 274,-802 160,-176 327,-309 500,-399 172,-90 350,-137 531,-139 107,-1 209,11 308,36 99,25 203,67 311,124zm-116 346c-22,105 -71,197 -147,277 -76,80 -152,121 -226,122 -36,0 -69,-9 -98,-28 -42,-32 -63,-89 -64,-171 -1,-63 20,-126 60,-188 41,-62 106,-111 196,-148 -90,1 -177,20 -261,55 -83,35 -155,80 -214,135 -60,54 -107,116 -142,184 -36,69 -53,137 -52,205 1,127 61,228 180,301 110,69 215,102 313,101 97,-1 183,-35 258,-101 74,-66 130,-150 168,-252 38,-103 57,-204 56,-303 -1,-69 -10,-132 -27,-189z"/>
  <path fill="#2A75BB" fill-rule="nonzero" d="M9627 5257l575 676 -36 107c-27,83 -73,162 -137,236 -59,68 -133,131 -221,190l-1 0c-85,56 -175,105 -271,148 -96,42 -200,79 -310,111 -110,31 -221,55 -332,72 -108,16 -219,25 -332,26 -102,1 -197,-4 -286,-16 -94,-13 -182,-33 -263,-59 -88,-29 -167,-66 -236,-110 -73,-47 -136,-103 -189,-169 -83,-102 -146,-218 -188,-348 -40,-125 -61,-263 -63,-413 -2,-117 7,-231 26,-343 19,-111 49,-223 89,-335l0 -1c40,-111 82,-205 125,-284 48,-87 100,-158 156,-212 57,-56 115,-105 173,-149 60,-44 123,-85 192,-123 66,-37 133,-69 200,-96 68,-27 138,-50 209,-69 70,-18 142,-33 215,-43 71,-9 145,-15 221,-16 98,-1 193,6 287,20 96,15 188,37 276,67 90,31 176,69 256,115 83,47 158,100 227,160l148 128 -554 678 44 52zm103 746l-239 -282c-22,28 -46,54 -70,79l0 1c-44,47 -92,89 -142,126 -52,39 -105,71 -161,98l-1 1c-57,27 -117,48 -178,63 -60,14 -123,21 -190,22l-433 5 1247 -1525c-58,-33 -120,-61 -187,-83 -69,-24 -138,-41 -208,-52 -71,-11 -145,-16 -220,-15 -57,1 -115,5 -172,13 -56,8 -111,19 -166,33 -55,15 -109,32 -161,54 -53,21 -105,46 -155,73 -48,27 -97,59 -145,95 -48,36 -93,74 -134,114 -26,25 -54,64 -83,117 -34,62 -67,138 -100,227 -31,87 -54,175 -70,266l0 0c-15,91 -22,181 -21,270 1,109 16,207 44,295 27,81 66,154 117,216l1 2c25,31 56,58 93,81 40,27 88,48 141,66l1 0c60,19 124,34 192,43 72,10 147,14 227,13 89,-1 182,-9 278,-23 93,-14 186,-34 280,-61 93,-26 179,-57 258,-92 79,-35 149,-73 212,-114l-1 0c59,-39 105,-79 139,-118l7 -8zm-887 -1321c48,12 97,29 145,53l224 111 -1011 1283 -116 -364c-11,-37 -22,-72 -31,-105 -10,-35 -18,-65 -24,-89l0 -1c-7,-29 -12,-59 -16,-89 -3,-26 -5,-57 -5,-92 -1,-89 12,-175 40,-256 26,-79 66,-154 119,-224 26,-39 60,-74 102,-105l0 0c38,-28 80,-52 126,-73 45,-20 94,-36 144,-48 49,-10 99,-16 151,-17 52,-1 103,5 152,16zm-1117 -1406l1248 -712 751 1123 -1752 356 -434 -660 187 -107zm1121 -174l-734 419 47 72 894 -182 -207 -309z"/>
  <path fill="#FFCB05" fill-rule="nonzero" d="M9472 5387l502 590c-38,116 -131,222 -278,320 -147,97 -322,175 -526,233 -203,58 -407,89 -611,91 -180,2 -342,-19 -484,-66 -142,-46 -252,-116 -329,-213 -135,-164 -204,-377 -207,-637 -3,-205 32,-408 103,-607 73,-200 150,-340 232,-420 98,-96 206,-176 322,-240 116,-65 237,-113 362,-146 126,-33 254,-51 387,-53 174,-2 339,24 496,77 158,53 296,132 415,236l-1109 1357c100,-1 194,-24 283,-66 89,-43 171,-104 245,-182 74,-78 140,-169 197,-274zm-573 -470c-68,-34 -137,-50 -206,-49 -74,1 -146,17 -214,48 -69,31 -117,67 -145,109 -84,110 -125,231 -123,362 1,48 6,93 16,137 11,44 28,104 52,180l620 -787zm-1073 -1465l1085 -619 478 716 -1323 269 -240 -366z"/>
  <path fill="#B30D28" fill-rule="nonzero" d="M10066 6233l-154 -2311 -251 48 44 -1127 2313 -375 73 1044 -1138 204 12 189 850 -146 76 920 -867 173 113 1498 -149 24c-34,5 -62,9 -85,12l-121 14c-48,6 -96,10 -142,13 -42,3 -86,5 -133,5 -72,1 -132,-1 -183,-7 -59,-8 -111,-20 -154,-37l-97 -38 -7 -103zm160 -2518l159 2373c35,3 75,5 118,4 32,0 71,-2 116,-5 39,-3 81,-7 125,-12l44 -5 -113 -1482 866 -173 -23 -273 -856 147 -54 -843 1136 -203 -28 -395 -1695 275 -18 448 211 -41 12 185z"/>
  <path fill="white" fill-rule="nonzero" d="M10230 6222l-167 -2496 -231 45 31 -788 2004 -325 50 720 -1136 203 33 516 852 -146 50 596 -867 173 114 1493c-40,6 -106,14 -200,25 -94,11 -180,16 -258,17 -124,2 -216,-10 -275,-33z"/>
  <path fill="#B30D28" fill-rule="nonzero" d="M12824 6202l-914 62 -62 -1746 -294 70 137 -741 1132 -492 163 2836 -162 11zm-600 -287l417 -29 -118 -2045 -543 236 -14 76 194 -46 64 1808zm0 -3478c51,-1 98,3 140,10l0 1c48,9 92,22 131,39 35,15 69,34 102,55 33,22 63,46 88,71 24,24 44,45 60,66 20,25 36,50 48,75l1 2c13,27 22,55 28,82 5,26 8,53 8,83 1,39 -3,78 -10,115 -7,36 -18,73 -34,112l0 1c-14,36 -30,69 -47,98 -17,31 -37,60 -59,88l-2 1c-25,30 -50,55 -75,74 -33,25 -69,43 -106,52l-11 2c-32,5 -59,9 -83,12 -25,3 -49,4 -72,5 -47,0 -92,-3 -133,-11 -46,-8 -88,-21 -127,-39 -41,-18 -78,-41 -111,-69 -33,-28 -62,-60 -87,-97 -24,-35 -43,-73 -58,-115 -15,-39 -25,-81 -31,-125l-1 -9 0 -11c-1,-62 6,-121 20,-177 14,-59 36,-115 65,-167l0 0c36,-66 83,-117 142,-155 58,-38 124,-60 199,-68l5 -1 10 0zm83 332l0 1c-22,-4 -46,-6 -70,-7 -20,3 -37,8 -49,16 -13,9 -24,21 -33,37l1 1c-17,30 -28,59 -36,89 -7,27 -10,56 -11,84 3,18 7,34 13,49 5,15 12,29 21,42l1 1c7,11 16,20 26,29 10,9 22,16 36,22 16,7 33,13 50,16 22,4 46,6 72,5 7,0 20,-1 39,-3 13,-1 28,-3 44,-6 4,-4 9,-9 14,-15 10,-13 20,-28 30,-45 11,-19 20,-38 28,-58 7,-17 12,-35 16,-54 3,-18 5,-34 5,-48 0,-6 -1,-12 -2,-19l-3 -10c-1,-2 -5,-7 -10,-14 -9,-11 -20,-23 -33,-36l-2 -2c-11,-10 -23,-20 -36,-29 -14,-9 -32,-19 -55,-29 -17,-7 -36,-13 -56,-17z"/>
  <path fill="white" fill-rule="nonzero" d="M12813 6039l-746 50 -63 -1777 -244 58 76 -408 837 -364 140 2441zm-587 -3439c78,-1 146,11 203,37 58,25 104,55 141,92 37,37 63,69 76,96 14,30 21,63 21,98 1,54 -10,109 -32,165 -23,56 -50,104 -83,144 -33,40 -64,64 -93,71 -58,10 -101,14 -130,15 -73,1 -136,-11 -191,-36 -54,-25 -98,-61 -130,-109 -33,-48 -53,-105 -62,-170 -1,-94 21,-182 66,-264 44,-82 116,-128 214,-139z"/>
  <path fill="#B30D28" fill-rule="nonzero" d="M20214 4154l-747 500 -75 -186c-13,-30 -25,-56 -39,-77 -13,-21 -29,-41 -47,-60 -8,-9 -16,-16 -22,-21 -12,15 -25,37 -38,69 -17,41 -30,102 -39,183l0 1c-10,92 -15,203 -13,332 1,92 5,196 12,312 6,115 15,235 26,358l14 156 -1127 145 -24 -158c-25,-167 -45,-332 -60,-493 -14,-156 -22,-303 -24,-441 0,-24 0,-53 1,-84 1,-33 2,-66 3,-100l-48 -1109 883 -121 81 92 10 -4 0 1c48,-16 83,-27 108,-35 27,-8 61,-17 102,-27 41,-11 74,-19 97,-24 33,-6 65,-11 97,-15 32,-3 65,-5 100,-6 69,0 134,7 195,22 62,15 119,38 173,69 59,31 112,64 160,98 50,35 93,71 130,109 43,43 80,94 110,153 29,56 52,118 69,187l27 111 -95 63zm-615 19l329 -220 -5 -11c-14,-28 -31,-52 -50,-71l-1 0c-25,-25 -54,-50 -88,-74 -36,-26 -78,-51 -125,-77l-5 -3c-28,-16 -58,-28 -91,-36 -35,-9 -73,-13 -114,-12 -20,0 -43,1 -68,4 -22,3 -44,6 -67,11l-2 1c-34,6 -60,12 -81,18 -20,5 -50,13 -88,25 -42,12 -75,23 -100,31l0 0c-47,16 -82,28 -105,36l-104 37 -111 -125 -417 58 36 825 0 7c-2,41 -3,75 -4,100 0,29 -1,54 0,74 1,129 9,267 22,415 9,98 21,203 36,316l498 -64c-6,-76 -11,-146 -15,-213 -6,-113 -10,-222 -11,-326 -2,-146 3,-270 14,-372 12,-112 33,-203 62,-273l0 0c33,-79 72,-141 119,-185 61,-59 132,-89 211,-90 53,-1 104,11 153,37 41,21 80,51 117,91 19,20 38,42 55,66z"/>
  <path fill="white" fill-rule="nonzero" d="M20123 4019l-580 388c-30,-73 -69,-136 -118,-188 -48,-52 -98,-77 -149,-77 -73,1 -133,59 -181,174 -46,112 -68,305 -64,581 2,194 15,421 39,682l-813 105c-52,-341 -79,-645 -83,-911 0,-45 1,-106 5,-183l-42 -967 649 -89 97 108c76,-28 148,-51 213,-71 65,-19 127,-35 184,-47 57,-12 113,-18 167,-18 110,-2 206,22 289,71 106,56 190,116 252,178 62,62 107,150 135,264z"/>
  <path fill="#2A75BB" fill-rule="nonzero" d="M4995 2965l1297 -563 179 2333 635 -358 1430 196 -1314 1034 963 709 99 1338 -1631 -1140 50 794 -1380 44 -227 -3515 -370 89 171 -918 98 -43zm937 34l-677 294 -18 94 232 -55 233 3604 571 -18 -78 -1217 1623 1135 -23 -305 -1242 -913 984 -774 -352 -48 -1069 603 -184 -2400z"/>
  <path fill="#FFCB05" fill-rule="nonzero" d="M5076 3150l1036 -450 182 2367 851 -481 891 122 -1149 905 1103 810 61 822 -1627 -1138 64 1006 -975 31 -231 -3560 -300 72 94 -506z"/>
  <path fill="#B30D28" fill-rule="nonzero" d="M18133 4639l464 546 -28 87c-22,67 -59,131 -111,191 -47,54 -107,105 -179,153l0 0c-69,45 -142,85 -219,119 -78,35 -161,65 -251,90l0 0c-90,26 -179,45 -268,58 -87,13 -177,20 -268,22 -82,1 -159,-4 -231,-14 -76,-10 -147,-26 -213,-47 -71,-24 -134,-53 -190,-89 -59,-38 -110,-84 -153,-136 -67,-83 -117,-177 -151,-281 -33,-101 -50,-213 -52,-335 -1,-93 6,-185 22,-275l0 -1c15,-90 39,-180 72,-271l0 -1c32,-89 66,-166 101,-229 38,-70 80,-128 126,-172 45,-44 92,-84 140,-120l0 0c49,-36 100,-69 154,-99 53,-30 108,-56 162,-78 55,-22 111,-40 168,-55 57,-15 115,-27 174,-35 58,-8 117,-12 179,-13 79,-1 156,4 232,16 77,12 152,30 223,54 72,25 141,56 207,93 66,38 127,81 183,129l119 104 -447 547 35 42zm84 603l-194 -227c-18,22 -36,43 -56,63l0 1c-36,38 -74,72 -115,102 -41,31 -85,57 -130,79l0 1c-47,22 -95,39 -145,50 -48,12 -99,18 -153,18l-349 5 1006 -1233c-46,-26 -96,-48 -150,-67 -56,-19 -112,-33 -168,-41 -58,-9 -117,-13 -178,-13 -46,1 -93,4 -139,11 -45,6 -90,15 -135,27 -44,11 -87,26 -129,43 -43,17 -85,37 -125,59 -41,23 -80,48 -118,76l0 1c-38,28 -74,59 -108,92 -21,20 -43,52 -67,94 -27,50 -54,111 -80,184 -26,69 -44,141 -57,215 -12,73 -18,146 -17,218 1,88 13,167 36,238 21,66 52,124 94,175l1 1c20,25 45,47 75,66 32,21 71,39 114,53l0 0c49,16 101,27 155,35 58,8 120,11 184,10 72,-1 147,-7 224,-18 76,-12 152,-28 227,-49 75,-22 144,-47 208,-75 64,-28 121,-59 171,-92l0 -1c47,-31 85,-63 112,-94l6 -7zm-717 -1067c39,9 78,24 117,43l181 89 -817 1037 -93 -295c-9,-29 -18,-57 -25,-84 -9,-29 -15,-53 -20,-72 -5,-23 -9,-47 -12,-73 -3,-21 -4,-46 -5,-74 -1,-72 10,-141 32,-207 22,-63 54,-124 97,-181 20,-31 48,-59 82,-84l0 -1c29,-21 63,-41 102,-58 37,-17 75,-30 116,-39 40,-9 81,-13 122,-14 42,0 83,4 123,13z"/>
  <path fill="white" fill-rule="nonzero" d="M18008 4745l406 476c-31,93 -106,180 -225,259 -119,78 -260,141 -424,188 -165,47 -330,71 -494,73 -146,2 -276,-15 -391,-53 -115,-37 -204,-94 -266,-172 -110,-133 -165,-305 -168,-514 -2,-166 26,-330 84,-491 59,-162 121,-275 187,-340 80,-77 167,-141 260,-193 94,-53 191,-92 293,-118 101,-27 205,-41 313,-43 140,-2 274,19 400,62 127,43 239,107 335,191l-896 1096c81,-1 157,-19 229,-53 72,-35 138,-84 198,-147 60,-63 113,-137 159,-221zm-463 -381c-55,-27 -110,-39 -166,-39 -60,1 -118,14 -173,39 -55,25 -95,54 -117,88 -68,89 -101,186 -100,292 1,39 5,76 14,111 8,35 22,84 41,145l501 -636z"/>
  <path fill="#B30D28" fill-rule="nonzero" d="M13496 3763l71 -23c52,-16 103,-30 153,-43 52,-14 101,-23 148,-30 47,-7 95,-10 144,-11 137,-2 259,28 366,88 61,33 122,77 184,132 59,51 120,114 184,188 64,75 116,148 158,219 43,76 75,150 93,223l0 0c31,121 56,236 72,345 17,110 27,212 28,308 1,51 0,102 -3,152 -2,52 -7,105 -12,159l0 0c-5,49 -13,110 -22,184 -10,76 -20,149 -30,216l-19 131 -1001 72 3 -178c1,-29 1,-63 1,-104l-1 -130c-3,-206 -19,-397 -50,-575 -30,-167 -72,-319 -126,-456 -9,17 -18,37 -27,59 -7,16 -12,32 -17,48l0 0c-5,19 -10,38 -14,55l1 0c-5,26 -9,49 -12,69 -2,21 -5,48 -7,79 -2,33 -4,64 -4,94 -1,35 -1,72 0,112 1,79 4,175 11,286 6,110 15,227 26,349l14 156 -1127 145 -24 -158 -20 -147c-9,-62 -16,-113 -20,-147l0 0c-6,-52 -12,-98 -16,-137 -6,-55 -11,-100 -14,-136l0 -1c-3,-36 -6,-80 -8,-133 -2,-43 -4,-90 -5,-143 0,-23 0,-50 1,-81 1,-32 2,-65 4,-99l-49 -1106 883 -124 83 93zm167 289c-51,16 -105,34 -163,54l-103 36 -111 -124 -417 58 37 824 -1 7c-2,42 -3,75 -3,99 -1,29 -1,52 -1,70 0,42 2,86 4,132 2,35 4,76 8,121 4,49 9,92 13,129l0 0c5,48 10,92 15,131l1 2c7,54 12,94 16,127l498 -65c-6,-73 -11,-141 -14,-202 -7,-108 -11,-209 -12,-301 0,-44 0,-85 1,-123 0,-43 2,-80 4,-108 2,-31 5,-64 10,-99 4,-35 9,-64 13,-89l1 -1c7,-32 13,-60 21,-85 8,-28 17,-54 26,-77l2 -3c39,-93 79,-166 119,-217 63,-81 135,-122 217,-123 74,-1 140,33 196,101 32,39 63,95 94,167l1 2c66,162 116,340 150,535 33,190 51,400 54,627l1 65 385 -28 11 -82c8,-61 15,-120 21,-176 5,-49 9,-96 11,-140 2,-48 3,-92 3,-133 -1,-80 -9,-168 -24,-262 -15,-97 -37,-202 -67,-315l0 -1c-11,-43 -31,-89 -59,-138 -31,-54 -73,-111 -124,-170 -51,-60 -102,-112 -151,-155 -45,-40 -87,-71 -125,-92l-2 -1c-57,-32 -124,-48 -203,-47 -32,1 -67,4 -104,9 -37,5 -75,12 -111,22 -38,10 -84,23 -138,39z"/>
  <path fill="white" fill-rule="nonzero" d="M13446 3952c122,-42 227,-75 315,-97 88,-23 172,-35 253,-36 108,-1 203,21 285,68 100,55 207,149 322,284 116,134 188,259 217,375 61,234 94,439 96,615 1,92 -4,190 -15,292 -11,103 -28,234 -51,394l-692 50c1,-54 2,-134 0,-238 -5,-433 -69,-801 -193,-1103 -47,-113 -93,-169 -137,-168 -58,1 -120,81 -188,240 -16,40 -29,84 -39,134 -9,50 -17,105 -21,167 -4,62 -6,135 -5,219 3,170 15,386 39,647l-813 105c-14,-97 -28,-194 -40,-289 -12,-96 -22,-186 -29,-268 -7,-82 -11,-170 -12,-265 -1,-41 1,-100 4,-178l-42 -965 650 -91 96 108z"/>
  <path fill="#B30D28" fill-rule="nonzero" d="M15724 4079c11,-3 21,-6 32,-9 -54,1 -109,9 -163,24l-1 0c-58,15 -117,38 -177,70 -60,31 -121,71 -180,119 -61,48 -122,104 -181,168 -60,66 -105,142 -135,228 -31,91 -46,193 -44,307 1,67 7,132 20,195 13,62 31,124 56,183 23,58 51,109 83,153l0 0c32,43 66,80 104,111 20,15 45,31 72,45 29,15 60,28 93,39l0 1c31,10 65,18 102,23 38,6 76,8 113,8 49,-1 100,-7 152,-18 52,-11 103,-28 153,-49l224 -95 2 172 416 -27 -28 -871 1 -10c1,-14 3,-30 3,-46 1,-22 1,-48 1,-76 -1,-27 -2,-58 -5,-92 -3,-31 -6,-58 -9,-80l-2 -10 -15 -503 -453 309c-19,13 -33,28 -41,45 -10,18 -14,41 -14,68l1 12 128 -1 9 655 -138 24c-16,3 -32,5 -47,7 -14,1 -30,2 -46,3 -60,0 -120,-9 -180,-28 -56,-18 -112,-44 -166,-80l0 0c-69,-44 -123,-98 -160,-160 -40,-66 -60,-139 -61,-218 0,-38 4,-75 12,-112 8,-35 20,-71 37,-107 16,-36 35,-69 55,-98l1 0c21,-31 45,-60 72,-87l0 -1c27,-27 57,-53 89,-77 30,-22 64,-44 100,-63l2 -2c36,-19 74,-35 113,-49zm-132 506l-3 7c-7,14 -12,29 -15,43 -3,13 -5,25 -4,36 0,20 5,39 14,54 11,18 30,36 56,53l2 2c23,15 46,27 68,36l0 -60 -14 -9 -4 -3c-43,-33 -74,-78 -93,-134 -3,-8 -5,-16 -7,-25zm436 -559l381 -51 -45 -1438 -368 171 32 1318zm-266 -1570l913 -424 77 2479c5,33 9,65 11,96 3,31 4,68 5,113 0,34 0,64 -1,89 0,26 -2,47 -3,64l37 1159 -1074 71 -1 -54c-66,13 -134,20 -204,21 -58,1 -113,-3 -164,-10 -52,-8 -105,-20 -157,-38l0 1c-51,-17 -98,-37 -142,-59 -43,-23 -85,-50 -125,-81l-2 -2c-62,-50 -117,-108 -164,-174l1 0c-47,-65 -87,-138 -120,-219 -32,-78 -57,-159 -74,-243 -17,-83 -25,-168 -27,-255 -2,-152 19,-291 62,-416 44,-130 112,-244 203,-344l1 -1c71,-76 143,-144 217,-202 76,-60 153,-111 232,-153 80,-42 163,-74 247,-96 61,-16 122,-27 185,-32l-30 -1245 97 -45z"/>
  <path fill="white" fill-rule="nonzero" d="M15866 4213c-60,8 -120,29 -179,60 -58,32 -108,69 -150,112 -41,42 -74,88 -97,139 -23,50 -34,100 -34,149 2,100 50,181 146,243 84,55 170,82 256,81 17,0 40,-2 68,-7l-5 -353c-29,0 -56,-7 -79,-22 -34,-26 -51,-77 -52,-152 -1,-108 41,-192 126,-250zm-35 -1608l688 -321 70 2243c9,57 15,122 16,195 1,64 -1,111 -5,143l33 1015 -745 49 -1 -101c-121,51 -243,77 -367,79 -95,1 -184,-12 -268,-40 -84,-27 -156,-65 -217,-113 -100,-81 -178,-189 -235,-328 -57,-137 -86,-283 -88,-438 -4,-266 70,-482 221,-647 131,-141 266,-249 406,-322 140,-74 284,-111 430,-113 42,-1 72,0 93,2l-31 -1303z"/>
 </g>
</svg>
